<svg width="0" height="0" class="hidden">
    <symbol viewBox="0 0 80 80" xmlns="http://www.w3.org/2000/svg" id="step4">
        <path d="M73.152 55.819a4.467 4.467 0 0 0-4.031-.657l-.371.117V50c0-.352-.148-.667-.382-.893.244-.81.381-1.65.381-2.517 0-3.716-2.333-6.89-5.608-8.157l5.319-6.383c.317-.382.38-.915.157-1.36l-2.5-5a1.25 1.25 0 0 0-1.118-.69H55c-.473 0-.906.268-1.118.691l-2.5 5c-.223.444-.16.978.157 1.36l5.319 6.383c-3.274 1.266-5.608 4.44-5.608 8.156 0 .74.095 1.46.273 2.16H48.75v-20c0-.69-.56-1.25-1.25-1.25H45c-7.58 0-13.75 6.169-13.75 13.75v1.25c0 4.65 2.327 8.76 5.87 11.25H25c-.33 0-.65.131-.884.366l-4.633 4.634h-.733V57.5c0-.69-.56-1.25-1.25-1.25H0v2.5h10V77.5H0V80h17.5c.69 0 1.25-.559 1.25-1.25V75h6.725l20.48 4.965a1.263 1.263 0 0 0 .966-.16l25.99-16.539A4.491 4.491 0 0 0 75 59.46a4.466 4.466 0 0 0-1.848-3.64zM16.25 77.5H12.5V58.75h3.75V77.5zm45-45h3.581l-3.581 4.298V32.5zm-2.5 4.298L55.169 32.5h3.581v4.298zM65.478 30H61.25v-2.5h2.978l1.25 2.5zm-9.705-2.5h2.977V30h-4.227l1.25-2.5zM53.75 46.59A6.257 6.257 0 0 1 60 40.34a6.257 6.257 0 0 1 5.868 8.41H54.132a6.228 6.228 0 0 1-.382-2.16zm-20-4.09v-1.25C33.75 35.046 38.798 30 45 30h1.25v20c0 .691.56 1.25 1.25 1.25h18.75v4.825l-16.241 5.168A6.232 6.232 0 0 1 47.5 56.25V55c0-.691-.56-1.25-1.25-1.25H45c-6.202 0-11.25-5.046-11.25-11.25zm12.005 17.275a8.7 8.7 0 0 0 1.503 2.342l-1.108.353-3.345-.514a7.525 7.525 0 0 0 2.95-2.181zm25.814 1.381L46.028 77.41l-20.109-4.874a1.215 1.215 0 0 0-.294-.036H18.75V61.25H20c.331 0 .649-.131.884-.366l4.634-4.634h19.324A5.008 5.008 0 0 1 40 60H30a1.25 1.25 0 0 0-.19 2.485l16.25 2.5c.19.03.387.015.57-.044l23.25-7.397a1.989 1.989 0 0 1 1.797.293c.523.382.823.974.823 1.622a2 2 0 0 1-.93 1.697zM72.5 7.5H70v5h2.5v-5zm0 7.5H70v2.5h2.5V15zm0 5H70v5h2.5v-5zm7.5-5h-5v2.5h5V15zm-12.5 0h-5v2.5h5V15zM56.25 0h-2.5v5h2.5V0zm0 7.5h-2.5V10h2.5V7.5zm0 5h-2.5v5h2.5v-5zm7.5-5h-5V10h5V7.5zm-12.5 0h-5V10h5V7.5z"></path>
        <path d="M43.75 40h-2.5v2.5h2.5V40zm0 5h-2.5v2.5h2.5V45zm0-10h-2.5v2.5h2.5V35z"></path>
    </symbol>
    <symbol viewBox="0 0 80 80" xmlns="http://www.w3.org/2000/svg" id="step3">
        <path d="M61.919 5.333H41.334v-4a1.333 1.333 0 1 0-2.667 0v4H18.082a3.417 3.417 0 0 0-3.414 3.415v67.839A3.417 3.417 0 0 0 18.082 80h43.84a3.417 3.417 0 0 0 3.413-3.414V8.749a3.417 3.417 0 0 0-3.415-3.415zM18.082 8h20.585v2.801c-3.039.62-5.333 3.312-5.333 6.532C33.334 21.01 36.324 24 40 24s6.667-2.99 6.667-6.667c0-3.218-2.295-5.912-5.333-6.532V8h20.585c.413 0 .748.335.748.748v57.919H17.334V8.748c0-.413.334-.748.748-.748zm21.919 10.667c.736 0 1.333-.596 1.333-1.333v-3.755c1.548.552 2.667 2.019 2.667 3.755 0 2.205-1.795 4-4 4s-4-1.795-4-4c0-1.736 1.119-3.203 2.667-3.755v3.755c0 .737.597 1.333 1.333 1.333zM61.92 77.334H18.083a.748.748 0 0 1-.748-.748v-7.252h45.333v7.252a.748.748 0 0 1-.748.748z"></path>
        <path d="M38.667 52.163v1.17a1.333 1.333 0 1 0 2.667 0v-1.175a6.655 6.655 0 0 0 3.758-2.224 4.592 4.592 0 0 0 1.058-3.474 4.862 4.862 0 0 0-1.844-3.317l-2.972-2.312v-7.25c1.548.551 2.666 2.018 2.666 3.754a1.333 1.333 0 1 0 2.667 0c0-3.219-2.295-5.912-5.333-6.532v-1.47a1.333 1.333 0 1 0-2.667 0v1.473a6.648 6.648 0 0 0-3.757 2.224 4.584 4.584 0 0 0-1.059 3.47 4.865 4.865 0 0 0 1.844 3.322l2.972 2.312v7.25C37.119 48.832 36 47.366 36 45.63a1.333 1.333 0 1 0-2.666 0c0 3.22 2.294 5.913 5.333 6.533zm-1.335-14.445a2.19 2.19 0 0 1-.829-1.493c-.056-.546.1-1.068.441-1.472a3.984 3.984 0 0 1 1.723-1.167v5.17l-1.335-1.038zm5.336 7.53c.466.36.768.906.83 1.49a1.94 1.94 0 0 1-.442 1.473 3.983 3.983 0 0 1-1.722 1.167v-5.17l1.334 1.04zM29.333 60h21.333a1.333 1.333 0 1 0 0-2.667H29.333a1.333 1.333 0 1 0 0 2.667zm0 4h21.333a1.333 1.333 0 1 0 0-2.667H29.333a1.333 1.333 0 1 0 0 2.667z"></path>
    </symbol>
    <symbol viewBox="0 0 94 80" xmlns="http://www.w3.org/2000/svg" id="step2">
        <path d="M46.85 80a1.41 1.41 0 0 1-1.085-.508L.335 25.207a1.433 1.433 0 0 1-.052-1.777L17.32.574c.267-.36.69-.571 1.136-.571h56.788c.446 0 .869.211 1.136.571L93.415 23.43a1.433 1.433 0 0 1-.051 1.778l-45.43 54.284a1.41 1.41 0 0 1-1.085.508zM3.234 24.236L46.85 76.354l43.616-52.118L74.534 2.86H19.165L3.233 24.236z"></path>
        <path d="M92.281 25.716H1.42c-.784 0-1.42-.637-1.42-1.429 0-.79.636-1.428 1.42-1.428h90.861c.784 0 1.42.64 1.42 1.428 0 .789-.636 1.429-1.42 1.429z"></path>
        <path d="M46.851 80a1.425 1.425 0 0 1-1.352-1.857l17.037-54.284a1.416 1.416 0 0 1 1.78-.932c.75.238 1.164 1.04.925 1.792L48.207 79.003c-.19.608-.753.997-1.355.997z"></path>
        <path d="M46.852 80a1.421 1.421 0 0 1-1.354-1L28.462 24.716a1.43 1.43 0 0 1 .925-1.791c.75-.243 1.545.18 1.78.931L48.205 78.14A1.43 1.43 0 0 1 46.852 80z"></path>
        <path d="M29.816 25.716a1.42 1.42 0 0 1-1.272-.788L17.186 2.07a1.435 1.435 0 0 1 .636-1.917 1.417 1.417 0 0 1 1.905.64L31.085 23.65a1.433 1.433 0 0 1-.636 1.917 1.42 1.42 0 0 1-.633.149z"></path>
        <path d="M29.812 25.716c-.295 0-.593-.094-.849-.286a1.433 1.433 0 0 1-.284-2L45.715.574A1.416 1.416 0 0 1 47.703.29c.627.474.755 1.368.284 2L30.95 25.145a1.42 1.42 0 0 1-1.139.571z"></path>
        <path d="M63.888 25.716c-.432 0-.858-.197-1.136-.571L45.716 2.289a1.433 1.433 0 0 1 .284-2 1.408 1.408 0 0 1 1.988.285L65.024 23.43a1.433 1.433 0 0 1-.284 2 1.397 1.397 0 0 1-.852.286z"></path>
        <path d="M63.888 25.716c-.213 0-.429-.049-.633-.151a1.435 1.435 0 0 1-.636-1.917L73.977.79a1.417 1.417 0 0 1 1.905-.64c.701.355.985 1.212.636 1.918L65.16 24.925a1.424 1.424 0 0 1-1.272.791z"></path>
    </symbol>
    <symbol fill="none" viewBox="0 0 94 80" xmlns="http://www.w3.org/2000/svg" id="step1">
        <path d="M46.85 80a1.41 1.41 0 0 1-1.085-.508L.335 25.207a1.433 1.433 0 0 1-.052-1.777L17.32.574c.267-.36.69-.571 1.136-.571h56.788c.446 0 .869.211 1.136.571L93.415 23.43a1.433 1.433 0 0 1-.051 1.778l-45.43 54.284a1.41 1.41 0 0 1-1.085.508zM3.234 24.236L46.85 76.354l43.616-52.118L74.534 2.86H19.165L3.233 24.236z" fill="#000"></path>
    </symbol>
</svg>